<svg version="1.2" xmlns="http://www.w3.org/2000/svg" viewBox="0 0 390 282" width="50" height="36">
	<title>logo-svg</title>
	<style>
		.s0 { fill: #095b69 } 
		.s1 { fill: #077d86 } 
		.s2 { fill: #00aba2 } 
	</style>
	<path id="Layer" class="s0" d="m101.2 280.9c-5.7 0-10.3-4.6-10.3-10.3v-56.9c0-5.7 4.6-10.3 10.3-10.3h55.1c37.3 0 68.8 29.2 71.7 66.4 0.2 2.9-0.8 5.7-2.7 7.8-2 2.1-4.7 3.3-7.6 3.3z"/>
	<path id="Layer" class="s0" d="m311.5 1c0 0-20.2 0-20.5 0-28.2-0.3-42 15.5-53.7 34.8-11.7-19.4-32.2-33-56.1-34.8-0.3 0-23 0-23 0-29.7 0-55.2 18.1-66.2 43.8-11-25.7-36.5-43.8-66.2-43.8h-14.4c-5.7 0-10.3 4.6-10.3 10.3v197.6c0 39.7 32.3 72 72 72h74.3c2.9 0 5.6-1.2 7.6-3.3 2-2.1 2.9-4.9 2.7-7.8-0.8-9.8-3.5-19-7.8-27.3 5.3-10-2.8-34.3 8.2-39.5 9.2-4.3 20.8-18 24.9-33.7 3.1-11.8 1.1-27.2 1.1-27.2 12 17.3 30.1 29.4 52.4 31.1 0.3 0 0.5 0 0.8 0 0.3 0 0.5 0 0.8 0 22.3-1.7 41.8-13.7 53.7-31.1v66.9c0 39.7 32.3 72 72 72h14.4c5.7 0 10.3-4.6 10.3-10.3v-197.7c0-39.7-37.3-72-77-72z"/>
	<path id="Layer" class="s1" d="m306.1 1h-14.4v197.6c0 34.1 27.6 61.7 61.7 61.7h14.4v-197.6c0-34.1-27.6-61.7-61.7-61.7z"/>
	<path id="Layer" class="s1" d="m86.2 47.3v148.2h14.4c34.1 0 61.7-20.7 61.7-46.3v-148.2h-14.4c-34.1 0-61.7 20.7-61.7 46.3z"/>
	<path id="Layer" class="s1" d="m226.9 62.4c0-32.4-25.1-59-56.9-61.4v90.1c0 32.4 25.1 59 56.9 61.4 31.8-2.4 56.9-29 56.9-61.4v-90.1c-31.8 2.4-56.9 29-56.9 61.4z"/>
	<path id="Layer" class="s2" d="m77.1 62.7v197.6h-14.4c-34.1 0-61.7-27.6-61.7-61.7v-197.6h14.4c34.1 0 61.7 27.6 61.7 61.7z"/>
	<path id="Layer" class="s2" d="m140.9 203.4h-55.1v56.9h116.5c-2.5-31.8-29-56.9-61.4-56.9z"/>
</svg>