<?xml version="1.0" encoding="UTF-8"?>
<svg xmlns="http://www.w3.org/2000/svg" xmlns:xlink="http://www.w3.org/1999/xlink" width="44px" height="36px" viewBox="0 0 43 36" version="1.1">
<g id="surface1">
<path style=" stroke:none;fill-rule:nonzero;fill:rgb(4.705882%,36.078431%,41.176471%);fill-opacity:1;" d="M 2.59375 35.9375 C 1.140625 35.9375 0 35.035156 0 33.855469 L 0 7.214844 C 0 6.878906 0 4.691406 0 4.480469 C -0.0195312 3.449219 0.476562 3.363281 1.371094 2.4375 C 2.65625 1.113281 4.628906 0.3125 6.644531 0.3125 C 8.324219 0.3125 10.859375 0.859375 13.390625 3.46875 C 13.433594 3.511719 13.453125 3.554688 13.496094 3.597656 L 17.273438 8.898438 C 17.335938 8.816406 17.398438 8.730469 17.503906 8.667969 L 21.59375 5.574219 C 26.347656 1.914062 30.894531 0.0625 35.109375 0.0625 C 38.804688 0.0625 43 1.722656 43 4.605469 L 43 33.855469 C 43 35.011719 42.105469 35.9375 41.007812 35.9375 L 32.679688 35.9375 C 31.601562 35.9375 30.707031 35.011719 30.707031 33.855469 L 30.644531 27.144531 C 30.355469 27.394531 30.042969 27.691406 29.710938 27.984375 C 28.820312 28.804688 27.824219 29.710938 26.722656 30.613281 C 26.722656 30.613281 25.578125 31.519531 25.578125 31.519531 C 24.625 32.277344 23.460938 32.65625 22.195312 32.65625 C 19.601562 32.65625 16.527344 31.265625 14.761719 28.636719 L 12.125 24.492188 L 12.476562 33.835938 C 12.476562 35.011719 11.335938 35.917969 9.882812 35.917969 L 2.59375 35.917969 Z M 2.59375 35.9375 "/>
<path style=" stroke:none;fill-rule:nonzero;fill:rgb(4.705882%,49.411765%,52.941176%);fill-opacity:1;" d="M 8.886719 33.917969 L 1.558594 33.917969 C 0.726562 33.917969 0 33.457031 0 32.886719 L 0 6.269531 L 10.421875 22.113281 L 10.421875 32.886719 C 10.421875 33.457031 9.71875 33.917969 8.886719 33.917969 Z M 8.886719 33.917969 "/>
<path style=" stroke:none;fill-rule:nonzero;fill:rgb(4.705882%,49.411765%,52.941176%);fill-opacity:1;" d="M 40.652344 2.230469 L 22.820312 16.746094 L 17.066406 8.5625 L 21.179688 5.46875 C 31.976562 -2.84375 38.679688 0.714844 40.652344 2.230469 Z M 40.652344 2.230469 "/>
<path style=" stroke:none;fill-rule:nonzero;fill:rgb(4.705882%,49.411765%,52.941176%);fill-opacity:1;" d="M 31.644531 33.917969 L 39.96875 33.917969 C 40.488281 33.917969 40.921875 33.457031 40.921875 32.886719 L 40.921875 3.636719 L 30.5 12.265625 L 30.730469 32.886719 C 30.707031 33.457031 31.125 33.917969 31.644531 33.917969 Z M 31.644531 33.917969 "/>
<path style=" stroke:none;fill-rule:nonzero;fill:rgb(13.333333%,70.196078%,65.490196%);fill-opacity:1;" d="M 29.460938 13.003906 C 27.324219 14.75 24.707031 16.851562 22.570312 18.601562 C 22.570312 18.601562 15.261719 8.375 11.605469 3.257812 C 6.1875 -2.335938 -0.0429688 1.535156 0 4.5 L 14.992188 26.871094 C 17.378906 30.46875 21.449219 31.710938 23.917969 29.753906 L 25.039062 28.867188 C 26.867188 27.351562 28.488281 25.753906 29.566406 24.847656 Z M 29.460938 13.003906 "/>
</g>
</svg>
