<svg id="Layer_1" data-name="Layer 1" xmlns="http://www.w3.org/2000/svg" viewBox="0 0 113.8 100.57" width="41" height="36"><defs><style>.cls-1{fill:#0c5c69;}.cls-2{fill:#0c7e87;}.cls-3{fill:#03aca3;}</style></defs><path class="cls-1" d="M111,0H78.86L76,2.48,73,26.2l-.52-3.56c-1-7.73-2-14.55-2.94-20.27L66.75,0H34.82L32,2.83V75.91h-.27V2.83L28.88,0H4.21L1.37,2.83V97.74l2.84,2.83H56.39l2.84-2.83V74.4l3.43,23.74,2.81,2.43h15.3l2.81-2.46,3-22.1V97.74l2.83,2.83H111l2.84-2.83V2.83Z"/><path class="cls-2" d="M106.76,0V94.9H85.19l0-64.07L76.57,94.9H61.27L52.21,32.3l0,62.6H30.61V0H62.55Q64,8.57,65.47,20.18L69,44.31,74.65,0Z"/><path class="cls-3" d="M24.68,0V75.91H51.94v19H0V0Z"/></svg>